<svg width="103" height="61" viewBox="0 0 103 61" fill="none" xmlns="http://www.w3.org/2000/svg">
<path d="M4.94963 47.981H0V12.6265H3.53545L17.0207 32.425L30.3039 12.6265H33.8393V47.981H28.8897V23.2328L17.4247 40.1525H16.4146L4.94963 23.2833V47.981Z" fill="#157BA5"/>
<circle cx="68.1838" cy="30.3039" r="30.3039" fill="url(#paint0_radial_222_2139)"/>
<path d="M84.8492 47.7639H72.8145V11.7583H84.8492C96.3907 11.7583 103 18.2689 103 29.7118C103 41.2533 96.3907 47.7639 84.8492 47.7639ZM76.9576 15.3095V44.2126H84.6519C93.9246 44.2126 98.6596 39.379 98.6596 29.7118C98.6596 20.1432 94.0232 15.3095 84.6519 15.3095H76.9576Z" fill="#001C28"/>
<path d="M66.6716 37.998C66.6716 44.3113 62.134 48.1585 54.8342 48.1585C50.1979 48.1585 45.6602 46.4815 42.7008 43.7195L44.3778 40.4642C47.6331 43.2262 51.1843 44.6073 54.7355 44.6073C59.8651 44.6073 62.5285 42.3384 62.5285 37.8994C62.5285 33.4603 59.7665 31.2901 54.2423 31.2901H50.0992V27.7389H53.4532C58.78 27.7389 61.7394 25.3714 61.7394 20.9324C61.7394 17.0852 59.2732 14.915 55.0315 14.915C51.5789 14.915 48.2249 16.296 44.871 19.0581L43.2927 15.8028C46.1534 13.0407 50.5924 11.3638 55.2288 11.3638C61.6407 11.3638 65.8825 14.915 65.8825 20.5378C65.8825 24.6809 63.7123 27.9362 60.161 29.3172C64.4028 30.501 66.6716 33.559 66.6716 37.998Z" fill="#001C28"/>
<defs>
<radialGradient id="paint0_radial_222_2139" cx="0" cy="0" r="1" gradientUnits="userSpaceOnUse" gradientTransform="translate(68.1838 30.3039) rotate(88.698) scale(22.6053)">
<stop offset="0.02" stop-color="#63B3D4"/>
<stop offset="0.784637" stop-color="#ECF9FF"/>
<stop offset="1" stop-color="#ECF9FF" stop-opacity="0"/>
</radialGradient>
</defs>
</svg>
